<mxfile host="app.diagrams.net" agent="Mozilla/5.0 (Macintosh; Intel Mac OS X 10_15_7) AppleWebKit/537.36 (KHTML, like Gecko) Chrome/133.0.0.0 Safari/537.36" version="26.1.0">
  <diagram name="Page-1" id="2c0d36ab-eaac-3732-788b-9136903baeff">
    <mxGraphModel dx="2252" dy="1243" grid="1" gridSize="10" guides="1" tooltips="1" connect="1" arrows="1" fold="1" page="1" pageScale="1.5" pageWidth="1169" pageHeight="827" background="none" math="0" shadow="0">
      <root>
        <mxCell id="0" />
        <mxCell id="1" parent="0" />
        <mxCell id="2" value="Review Threads" style="rounded=1;fillColor=#f5f5f5;strokeColor=#666666;fontColor=#333333;fontStyle=1;fontFamily=Tahoma;fontSize=14" parent="1" vertex="1">
          <mxGeometry x="757" y="185.5" width="190" height="80" as="geometry" />
        </mxCell>
        <mxCell id="4" value="Device interface" style="rounded=1;fillColor=#66B2FF;gradientColor=none;strokeColor=default;fontColor=default;fontStyle=1;fontFamily=Tahoma;fontSize=14;" parent="1" vertex="1">
          <mxGeometry x="1100.9999999999998" y="314.5" width="190" height="80" as="geometry" />
        </mxCell>
        <mxCell id="9" value="" style="edgeStyle=elbowEdgeStyle;elbow=vertical;strokeWidth=2;rounded=0" parent="1" source="2" target="4" edge="1">
          <mxGeometry x="337" y="215.5" width="100" height="100" as="geometry">
            <mxPoint x="852" y="244.5" as="sourcePoint" />
            <mxPoint x="437" y="194.5" as="targetPoint" />
            <Array as="points">
              <mxPoint x="1050" y="280" />
            </Array>
          </mxGeometry>
        </mxCell>
        <mxCell id="10" value="Data management " style="rounded=1;fillColor=#66B2FF;gradientColor=none;strokeColor=default;fontColor=default;fontStyle=1;fontFamily=Tahoma;fontSize=14;" parent="1" vertex="1">
          <mxGeometry x="854" y="756" width="190" height="80" as="geometry" />
        </mxCell>
        <mxCell id="13" value="Code style and &#xa;quality " style="rounded=1;fontStyle=1;fontFamily=Tahoma;fontSize=14;fillColor=#66B2FF;strokeColor=light-dark(#000000, #5c79a3);" parent="1" vertex="1">
          <mxGeometry x="399" y="314.5" width="190" height="80" as="geometry" />
        </mxCell>
        <mxCell id="14" value="Imports" style="rounded=1;fillColor=#dae8fc;strokeColor=#6c8ebf;fontStyle=1;fontFamily=Tahoma;fontSize=14" parent="1" vertex="1">
          <mxGeometry x="239" y="444" width="130" height="60" as="geometry" />
        </mxCell>
        <mxCell id="16" value="Redundant code&#xa;+ comments" style="rounded=1;fillColor=#dae8fc;strokeColor=#6c8ebf;fontStyle=1;fontFamily=Tahoma;fontSize=14" parent="1" vertex="1">
          <mxGeometry x="369" y="499" width="130" height="60" as="geometry" />
        </mxCell>
        <mxCell id="17" value="Code style" style="rounded=1;fontStyle=1;fontFamily=Tahoma;fontSize=14;fillColor=#dae8fc;strokeColor=#6c8ebf;" parent="1" vertex="1">
          <mxGeometry x="670" y="363" width="130" height="60" as="geometry" />
        </mxCell>
        <mxCell id="18" value="Classes and&#xa;inheritance" style="rounded=1;fillColor=#dae8fc;strokeColor=#6c8ebf;fontStyle=1;fontFamily=Tahoma;fontSize=14" parent="1" vertex="1">
          <mxGeometry x="560" y="503" width="130" height="60" as="geometry" />
        </mxCell>
        <mxCell id="29" value="Authentication" style="rounded=1;fillColor=#dae8fc;strokeColor=#6c8ebf;fontStyle=1;fontFamily=Tahoma;fontSize=14" parent="1" vertex="1">
          <mxGeometry x="531" y="779" width="130" height="60" as="geometry" />
        </mxCell>
        <mxCell id="33" value="Configuration &#xa;entries" style="rounded=1;fillColor=#dae8fc;strokeColor=#6c8ebf;fontStyle=1;fontFamily=Tahoma;fontSize=14" parent="1" vertex="1">
          <mxGeometry x="680" y="979" width="130" height="60" as="geometry" />
        </mxCell>
        <mxCell id="41" value="Dictionary&#xa;operations" style="rounded=1;fillColor=#dae8fc;strokeColor=#6c8ebf;fontStyle=1;fontFamily=Tahoma;fontSize=14" parent="1" vertex="1">
          <mxGeometry x="854" y="926" width="130" height="60" as="geometry" />
        </mxCell>
        <mxCell id="42" value="Attribute&#xa;assignment" style="rounded=1;fillColor=#dae8fc;strokeColor=#6c8ebf;fontStyle=1;fontFamily=Tahoma;fontSize=14" parent="1" vertex="1">
          <mxGeometry x="775" y="846" width="130" height="60" as="geometry" />
        </mxCell>
        <mxCell id="43" value="Schemas +&#xa;data validation" style="rounded=1;fillColor=#dae8fc;strokeColor=#6c8ebf;fontStyle=1;fontFamily=Tahoma;fontSize=14" parent="1" vertex="1">
          <mxGeometry x="1060" y="856" width="130" height="60" as="geometry" />
        </mxCell>
        <mxCell id="44" value="Domain-specific&#xa;discussion" style="rounded=1;fillColor=#8CE0FF;strokeColor=#666666;fontStyle=1;fontFamily=Tahoma;fontSize=14;fontColor=#333333;" parent="1" vertex="1">
          <mxGeometry x="1131" y="429.00000000000006" width="130" height="60" as="geometry" />
        </mxCell>
        <mxCell id="48" value="Device &#xa;library" style="rounded=1;fillColor=#dae8fc;strokeColor=#6c8ebf;fontStyle=1;fontFamily=Tahoma;fontSize=14" parent="1" vertex="1">
          <mxGeometry x="954" y="380" width="130" height="60" as="geometry" />
        </mxCell>
        <mxCell id="61" value="" style="edgeStyle=elbowEdgeStyle;elbow=vertical;strokeWidth=2;rounded=0" parent="1" edge="1">
          <mxGeometry x="-23" y="135.5" width="100" height="100" as="geometry">
            <mxPoint x="852" y="265.5" as="sourcePoint" />
            <mxPoint x="494" y="314.5" as="targetPoint" />
            <Array as="points">
              <mxPoint x="670" y="280" />
            </Array>
          </mxGeometry>
        </mxCell>
        <mxCell id="103" value="" style="edgeStyle=elbowEdgeStyle;elbow=vertical;strokeWidth=2;rounded=0" parent="1" edge="1">
          <mxGeometry x="-23" y="135.5" width="100" height="100" as="geometry">
            <mxPoint x="955.55" y="836" as="sourcePoint" />
            <mxPoint x="955.55" y="926" as="targetPoint" />
            <Array as="points">
              <mxPoint x="955.55" y="906" />
            </Array>
          </mxGeometry>
        </mxCell>
        <mxCell id="105" value="" style="edgeStyle=elbowEdgeStyle;elbow=vertical;strokeWidth=2;rounded=0" parent="1" source="4" target="44" edge="1">
          <mxGeometry x="-23" y="135.5" width="100" height="100" as="geometry">
            <mxPoint x="-79" y="214.5" as="sourcePoint" />
            <mxPoint x="21" y="114.5" as="targetPoint" />
          </mxGeometry>
        </mxCell>
        <mxCell id="l-jHCrnwmfXqRq9-ljeA-123" value="Async functionality &#xa;+ event loop" style="rounded=1;fillColor=#dae8fc;strokeColor=#6c8ebf;fontStyle=1;fontFamily=Tahoma;fontSize=14;arcSize=18;" parent="1" vertex="1">
          <mxGeometry x="225" y="789" width="160" height="60" as="geometry" />
        </mxCell>
        <mxCell id="l-jHCrnwmfXqRq9-ljeA-124" value="Data coordinators" style="rounded=1;fillColor=#dae8fc;strokeColor=#6c8ebf;fontStyle=1;fontFamily=Tahoma;fontSize=14" parent="1" vertex="1">
          <mxGeometry x="560" y="689" width="150" height="60" as="geometry" />
        </mxCell>
        <mxCell id="l-jHCrnwmfXqRq9-ljeA-126" value="Typing and&#xa;casting" style="rounded=1;fillColor=#dae8fc;strokeColor=#6c8ebf;fontStyle=1;fontFamily=Tahoma;fontSize=14" parent="1" vertex="1">
          <mxGeometry x="259" y="359" width="130" height="60" as="geometry" />
        </mxCell>
        <mxCell id="l-jHCrnwmfXqRq9-ljeA-131" value="Measurement and&#xa;units" style="rounded=1;fillColor=#dae8fc;strokeColor=#6c8ebf;fontStyle=1;fontFamily=Tahoma;fontSize=14" parent="1" vertex="1">
          <mxGeometry x="1000" y="921" width="140" height="60" as="geometry" />
        </mxCell>
        <mxCell id="l-jHCrnwmfXqRq9-ljeA-132" value="" style="edgeStyle=elbowEdgeStyle;elbow=vertical;strokeWidth=2;rounded=0" parent="1" target="43" edge="1">
          <mxGeometry x="-23" y="135.5" width="100" height="100" as="geometry">
            <mxPoint x="956" y="841" as="sourcePoint" />
            <mxPoint x="1125" y="861" as="targetPoint" />
            <Array as="points">
              <mxPoint x="1040" y="841" />
            </Array>
          </mxGeometry>
        </mxCell>
        <mxCell id="l-jHCrnwmfXqRq9-ljeA-135" value="Services" style="rounded=1;fillColor=#dae8fc;strokeColor=#6c8ebf;fontStyle=1;fontFamily=Tahoma;fontSize=14" parent="1" vertex="1">
          <mxGeometry x="391" y="764.5" width="130" height="60" as="geometry" />
        </mxCell>
        <mxCell id="l-jHCrnwmfXqRq9-ljeA-137" value="Devices" style="rounded=1;fillColor=#dae8fc;strokeColor=#6c8ebf;fontStyle=1;fontFamily=Tahoma;fontSize=14" parent="1" vertex="1">
          <mxGeometry x="994" y="449" width="130" height="60" as="geometry" />
        </mxCell>
        <mxCell id="l-jHCrnwmfXqRq9-ljeA-139" value="Sensor" style="rounded=1;fillColor=#dae8fc;strokeColor=#6c8ebf;fontStyle=1;fontFamily=Tahoma;fontSize=14" parent="1" vertex="1">
          <mxGeometry x="1302" y="353" width="75" height="30" as="geometry" />
        </mxCell>
        <mxCell id="l-jHCrnwmfXqRq9-ljeA-140" value="Climate + Fan" style="rounded=1;fillColor=#dae8fc;strokeColor=#6c8ebf;fontStyle=1;fontFamily=Tahoma;fontSize=14" parent="1" vertex="1">
          <mxGeometry x="1407" y="353" width="110" height="30" as="geometry" />
        </mxCell>
        <mxCell id="l-jHCrnwmfXqRq9-ljeA-141" value="Media player" style="rounded=1;fillColor=#dae8fc;strokeColor=#6c8ebf;fontStyle=1;fontFamily=Tahoma;fontSize=14" parent="1" vertex="1">
          <mxGeometry x="1407" y="433" width="110" height="30" as="geometry" />
        </mxCell>
        <mxCell id="l-jHCrnwmfXqRq9-ljeA-142" value="Light" style="rounded=1;fillColor=#dae8fc;strokeColor=#6c8ebf;fontStyle=1;fontFamily=Tahoma;fontSize=14" parent="1" vertex="1">
          <mxGeometry x="1302" y="393" width="75" height="30" as="geometry" />
        </mxCell>
        <mxCell id="l-jHCrnwmfXqRq9-ljeA-143" value="Humidifier" style="rounded=1;fillColor=#dae8fc;strokeColor=#6c8ebf;fontStyle=1;fontFamily=Tahoma;fontSize=14" parent="1" vertex="1">
          <mxGeometry x="1407" y="513" width="110" height="30" as="geometry" />
        </mxCell>
        <mxCell id="l-jHCrnwmfXqRq9-ljeA-144" value="Button" style="rounded=1;fillColor=#dae8fc;strokeColor=#6c8ebf;fontStyle=1;fontFamily=Tahoma;fontSize=14" parent="1" vertex="1">
          <mxGeometry x="1302" y="473" width="75" height="30" as="geometry" />
        </mxCell>
        <mxCell id="l-jHCrnwmfXqRq9-ljeA-145" value="Camera" style="rounded=1;fillColor=#dae8fc;strokeColor=#6c8ebf;fontStyle=1;fontFamily=Tahoma;fontSize=14" parent="1" vertex="1">
          <mxGeometry x="1302" y="513" width="75" height="30" as="geometry" />
        </mxCell>
        <mxCell id="l-jHCrnwmfXqRq9-ljeA-146" value="Lock + Alarm" style="rounded=1;fillColor=#dae8fc;strokeColor=#6c8ebf;fontStyle=1;fontFamily=Tahoma;fontSize=14" parent="1" vertex="1">
          <mxGeometry x="1407" y="393" width="110" height="30" as="geometry" />
        </mxCell>
        <mxCell id="l-jHCrnwmfXqRq9-ljeA-147" value="Notification" style="rounded=1;fillColor=#dae8fc;strokeColor=#6c8ebf;fontStyle=1;fontFamily=Tahoma;fontSize=14" parent="1" vertex="1">
          <mxGeometry x="1407" y="473" width="110" height="30" as="geometry" />
        </mxCell>
        <mxCell id="l-jHCrnwmfXqRq9-ljeA-150" value="Execution" style="rounded=1;fillColor=#66B2FF;gradientColor=none;strokeColor=default;fontColor=default;fontStyle=1;fontFamily=Tahoma;fontSize=14;" parent="1" vertex="1">
          <mxGeometry x="1284.9999999999998" y="586" width="190" height="80" as="geometry" />
        </mxCell>
        <mxCell id="l-jHCrnwmfXqRq9-ljeA-151" value="Error handling" style="rounded=1;fillColor=#dae8fc;strokeColor=#6c8ebf;fontStyle=1;fontFamily=Tahoma;fontSize=14" parent="1" vertex="1">
          <mxGeometry x="1200.5" y="686" width="130" height="60" as="geometry" />
        </mxCell>
        <mxCell id="l-jHCrnwmfXqRq9-ljeA-152" value="Logging" style="rounded=1;fillColor=#dae8fc;strokeColor=#6c8ebf;fontStyle=1;fontFamily=Tahoma;fontSize=14" parent="1" vertex="1">
          <mxGeometry x="1453" y="681.5" width="130" height="60" as="geometry" />
        </mxCell>
        <mxCell id="l-jHCrnwmfXqRq9-ljeA-153" value="State&#xa;management" style="rounded=1;fillColor=#dae8fc;strokeColor=#6c8ebf;fontStyle=1;fontFamily=Tahoma;fontSize=14" parent="1" vertex="1">
          <mxGeometry x="1250" y="756" width="130" height="60" as="geometry" />
        </mxCell>
        <mxCell id="l-jHCrnwmfXqRq9-ljeA-154" value="PR process" style="rounded=1;fillColor=#66B2FF;gradientColor=none;strokeColor=default;fontColor=default;fontStyle=1;fontFamily=Tahoma;fontSize=14;" parent="1" vertex="1">
          <mxGeometry x="904.9999999999998" y="566" width="190" height="80" as="geometry" />
        </mxCell>
        <mxCell id="l-jHCrnwmfXqRq9-ljeA-155" value="Questions" style="rounded=1;fillColor=#dae8fc;strokeColor=#6c8ebf;fontStyle=1;fontFamily=Tahoma;fontSize=14" parent="1" vertex="1">
          <mxGeometry x="1120" y="612" width="130" height="60" as="geometry" />
        </mxCell>
        <mxCell id="l-jHCrnwmfXqRq9-ljeA-156" value="Praise/&#xa;acknowledgements" style="rounded=1;fillColor=#dae8fc;strokeColor=#6c8ebf;fontStyle=1;fontFamily=Tahoma;fontSize=14" parent="1" vertex="1">
          <mxGeometry x="865" y="672" width="145" height="60" as="geometry" />
        </mxCell>
        <mxCell id="l-jHCrnwmfXqRq9-ljeA-157" value="HA guidelines" style="rounded=1;fillColor=#dae8fc;strokeColor=#6c8ebf;fontStyle=1;fontFamily=Tahoma;fontSize=14" parent="1" vertex="1">
          <mxGeometry x="1035" y="681.5" width="145" height="60" as="geometry" />
        </mxCell>
        <mxCell id="l-jHCrnwmfXqRq9-ljeA-158" value="Timing/&#xa;timezones" style="rounded=1;fillColor=#dae8fc;strokeColor=#6c8ebf;fontStyle=1;fontFamily=Tahoma;fontSize=14" parent="1" vertex="1">
          <mxGeometry x="1400" y="756" width="145" height="60" as="geometry" />
        </mxCell>
        <mxCell id="l-jHCrnwmfXqRq9-ljeA-160" value="Testing" style="rounded=1;fillColor=#dae8fc;strokeColor=#6c8ebf;fontStyle=1;fontFamily=Tahoma;fontSize=14" parent="1" vertex="1">
          <mxGeometry x="439" y="429" width="130" height="60" as="geometry" />
        </mxCell>
        <mxCell id="l-jHCrnwmfXqRq9-ljeA-161" value="" style="edgeStyle=elbowEdgeStyle;elbow=vertical;strokeWidth=2;rounded=0" parent="1" target="12" edge="1">
          <mxGeometry x="-23" y="135.5" width="100" height="100" as="geometry">
            <mxPoint x="852" y="281" as="sourcePoint" />
            <mxPoint x="662" y="640.9999999999998" as="targetPoint" />
            <Array as="points">
              <mxPoint x="660" y="570" />
            </Array>
          </mxGeometry>
        </mxCell>
        <mxCell id="l-jHCrnwmfXqRq9-ljeA-163" value="" style="edgeStyle=elbowEdgeStyle;elbow=horizontal;strokeWidth=2;rounded=0" parent="1" target="l-jHCrnwmfXqRq9-ljeA-125" edge="1">
          <mxGeometry x="-23" y="135.5" width="100" height="100" as="geometry">
            <mxPoint x="456" y="689" as="sourcePoint" />
            <mxPoint x="345" y="749" as="targetPoint" />
            <Array as="points">
              <mxPoint x="456" y="749" />
            </Array>
          </mxGeometry>
        </mxCell>
        <mxCell id="l-jHCrnwmfXqRq9-ljeA-125" value="Communication&#xa;protocols" style="rounded=1;fillColor=#dae8fc;strokeColor=#6c8ebf;fontStyle=1;fontFamily=Tahoma;fontSize=14" parent="1" vertex="1">
          <mxGeometry x="220" y="679" width="130" height="60" as="geometry" />
        </mxCell>
        <mxCell id="12" value="Initialization" style="rounded=1;fillColor=#66B2FF;gradientColor=none;strokeColor=default;fontColor=default;fontStyle=1;fontFamily=Tahoma;fontSize=14;" parent="1" vertex="1">
          <mxGeometry x="359.9999999999999" y="609" width="190" height="80" as="geometry" />
        </mxCell>
        <mxCell id="DsPwOujlODeQ00mXqI9u-106" value="" style="edgeStyle=elbowEdgeStyle;elbow=vertical;strokeWidth=2;rounded=0" parent="1" target="l-jHCrnwmfXqRq9-ljeA-126" edge="1">
          <mxGeometry x="-23" y="135.5" width="100" height="100" as="geometry">
            <mxPoint x="494" y="394.5" as="sourcePoint" />
            <mxPoint x="364" y="559" as="targetPoint" />
            <Array as="points">
              <mxPoint x="494" y="409" />
            </Array>
          </mxGeometry>
        </mxCell>
        <mxCell id="DsPwOujlODeQ00mXqI9u-107" value="" style="edgeStyle=elbowEdgeStyle;elbow=vertical;strokeWidth=2;rounded=0" parent="1" target="14" edge="1">
          <mxGeometry x="-23" y="135.5" width="100" height="100" as="geometry">
            <mxPoint x="424" y="409" as="sourcePoint" />
            <mxPoint x="339" y="592" as="targetPoint" />
            <Array as="points">
              <mxPoint x="389" y="479" />
            </Array>
          </mxGeometry>
        </mxCell>
        <mxCell id="DsPwOujlODeQ00mXqI9u-109" value="" style="edgeStyle=elbowEdgeStyle;elbow=vertical;strokeWidth=2;rounded=0" parent="1" target="16" edge="1">
          <mxGeometry x="-23" y="135.5" width="100" height="100" as="geometry">
            <mxPoint x="424" y="479" as="sourcePoint" />
            <mxPoint x="339" y="662" as="targetPoint" />
            <Array as="points">
              <mxPoint x="424" y="489" />
            </Array>
          </mxGeometry>
        </mxCell>
        <mxCell id="DsPwOujlODeQ00mXqI9u-111" value="" style="edgeStyle=elbowEdgeStyle;elbow=vertical;strokeWidth=2;rounded=0" parent="1" edge="1">
          <mxGeometry x="-23" y="135.5" width="100" height="100" as="geometry">
            <mxPoint x="493.62" y="410" as="sourcePoint" />
            <mxPoint x="493.62" y="428.9999999999999" as="targetPoint" />
            <Array as="points">
              <mxPoint x="493.62" y="420" />
            </Array>
          </mxGeometry>
        </mxCell>
        <mxCell id="DsPwOujlODeQ00mXqI9u-112" value="" style="edgeStyle=elbowEdgeStyle;elbow=vertical;strokeWidth=2;rounded=0" parent="1" target="17" edge="1">
          <mxGeometry x="-23" y="135.5" width="100" height="100" as="geometry">
            <mxPoint x="495" y="409" as="sourcePoint" />
            <mxPoint x="595" y="409" as="targetPoint" />
            <Array as="points">
              <mxPoint x="555" y="409" />
            </Array>
          </mxGeometry>
        </mxCell>
        <mxCell id="DsPwOujlODeQ00mXqI9u-113" value="" style="edgeStyle=elbowEdgeStyle;elbow=vertical;strokeWidth=2;rounded=0" parent="1" target="18" edge="1">
          <mxGeometry x="-23" y="135.5" width="100" height="100" as="geometry">
            <mxPoint x="588" y="409" as="sourcePoint" />
            <mxPoint x="598" y="503" as="targetPoint" />
            <Array as="points">
              <mxPoint x="588" y="490" />
            </Array>
          </mxGeometry>
        </mxCell>
        <mxCell id="DsPwOujlODeQ00mXqI9u-114" value="IDs" style="rounded=1;fillColor=#dae8fc;strokeColor=#6c8ebf;fontStyle=1;fontFamily=Tahoma;fontSize=14" parent="1" vertex="1">
          <mxGeometry x="480" y="979" width="130" height="60" as="geometry" />
        </mxCell>
        <mxCell id="DsPwOujlODeQ00mXqI9u-116" value="Configuration" style="rounded=1;fillColor=#66B2FF;gradientColor=none;strokeColor=default;fontColor=default;fontStyle=1;fontFamily=Tahoma;fontSize=14;" parent="1" vertex="1">
          <mxGeometry x="549.9999999999998" y="869" width="190" height="80" as="geometry" />
        </mxCell>
        <mxCell id="DsPwOujlODeQ00mXqI9u-117" value="" style="edgeStyle=orthogonalEdgeStyle;elbow=horizontal;strokeWidth=2;rounded=0" parent="1" edge="1">
          <mxGeometry x="-23" y="135.5" width="100" height="100" as="geometry">
            <mxPoint x="436" y="709" as="sourcePoint" />
            <mxPoint x="301" y="789" as="targetPoint" />
            <Array as="points">
              <mxPoint x="436" y="750" />
              <mxPoint x="302" y="750" />
              <mxPoint x="302" y="789" />
            </Array>
          </mxGeometry>
        </mxCell>
        <mxCell id="DsPwOujlODeQ00mXqI9u-121" value="" style="edgeStyle=elbowEdgeStyle;elbow=horizontal;strokeWidth=2;rounded=0" parent="1" edge="1">
          <mxGeometry x="-23" y="135.5" width="100" height="100" as="geometry">
            <mxPoint x="426" y="750" as="sourcePoint" />
            <mxPoint x="436" y="764.5" as="targetPoint" />
            <Array as="points">
              <mxPoint x="436" y="750" />
            </Array>
          </mxGeometry>
        </mxCell>
        <mxCell id="DsPwOujlODeQ00mXqI9u-122" value="" style="edgeStyle=elbowEdgeStyle;elbow=horizontal;strokeWidth=2;rounded=0" parent="1" target="l-jHCrnwmfXqRq9-ljeA-124" edge="1">
          <mxGeometry x="-23" y="135.5" width="100" height="100" as="geometry">
            <mxPoint x="457" y="709" as="sourcePoint" />
            <mxPoint x="535.9999999999999" y="729" as="targetPoint" />
            <Array as="points">
              <mxPoint x="491" y="709" />
            </Array>
          </mxGeometry>
        </mxCell>
        <mxCell id="DsPwOujlODeQ00mXqI9u-123" value="" style="edgeStyle=orthogonalEdgeStyle;elbow=horizontal;strokeWidth=2;rounded=0" parent="1" target="29" edge="1">
          <mxGeometry x="-23" y="135.5" width="100" height="100" as="geometry">
            <mxPoint x="521" y="709" as="sourcePoint" />
            <mxPoint x="611" y="772" as="targetPoint" />
            <Array as="points">
              <mxPoint x="523" y="762" />
              <mxPoint x="611" y="762" />
            </Array>
          </mxGeometry>
        </mxCell>
        <mxCell id="DsPwOujlODeQ00mXqI9u-126" value="" style="edgeStyle=orthogonalEdgeStyle;elbow=horizontal;strokeWidth=2;rounded=0" parent="1" target="DsPwOujlODeQ00mXqI9u-116" edge="1">
          <mxGeometry x="-23" y="135.5" width="100" height="100" as="geometry">
            <mxPoint x="765" y="570" as="sourcePoint" />
            <mxPoint x="630" y="889" as="targetPoint" />
            <Array as="points">
              <mxPoint x="765" y="850" />
              <mxPoint x="650" y="850" />
            </Array>
          </mxGeometry>
        </mxCell>
        <mxCell id="DsPwOujlODeQ00mXqI9u-129" value="" style="edgeStyle=orthogonalEdgeStyle;elbow=horizontal;strokeWidth=2;rounded=0" parent="1" target="DsPwOujlODeQ00mXqI9u-114" edge="1">
          <mxGeometry x="-23" y="135.5" width="100" height="100" as="geometry">
            <mxPoint x="651" y="949" as="sourcePoint" />
            <mxPoint x="516" y="1029" as="targetPoint" />
            <Array as="points">
              <mxPoint x="651" y="959" />
              <mxPoint x="545" y="959" />
            </Array>
          </mxGeometry>
        </mxCell>
        <mxCell id="DsPwOujlODeQ00mXqI9u-130" value="" style="edgeStyle=orthogonalEdgeStyle;elbow=horizontal;strokeWidth=2;rounded=0;" parent="1" target="33" edge="1">
          <mxGeometry x="-23" y="135.5" width="100" height="100" as="geometry">
            <mxPoint x="651" y="949" as="sourcePoint" />
            <mxPoint x="740" y="969" as="targetPoint" />
            <Array as="points">
              <mxPoint x="651" y="959" />
              <mxPoint x="745" y="959" />
            </Array>
          </mxGeometry>
        </mxCell>
        <mxCell id="DsPwOujlODeQ00mXqI9u-134" value="" style="edgeStyle=elbowEdgeStyle;elbow=vertical;strokeWidth=2;rounded=0;endArrow=none;startFill=0;" parent="1" edge="1">
          <mxGeometry x="-23" y="135.5" width="100" height="100" as="geometry">
            <mxPoint x="1391" y="373" as="sourcePoint" />
            <mxPoint x="1391" y="523" as="targetPoint" />
          </mxGeometry>
        </mxCell>
        <mxCell id="DsPwOujlODeQ00mXqI9u-135" value="" style="edgeStyle=elbowEdgeStyle;elbow=vertical;strokeWidth=2;rounded=0;endArrow=none;startFill=0;" parent="1" edge="1">
          <mxGeometry x="-23" y="135.5" width="100" height="100" as="geometry">
            <mxPoint x="1377" y="524" as="sourcePoint" />
            <mxPoint x="1407" y="524" as="targetPoint" />
          </mxGeometry>
        </mxCell>
        <mxCell id="DsPwOujlODeQ00mXqI9u-136" value="" style="edgeStyle=elbowEdgeStyle;elbow=vertical;strokeWidth=2;rounded=0;endArrow=none;startFill=0;" parent="1" source="l-jHCrnwmfXqRq9-ljeA-144" target="l-jHCrnwmfXqRq9-ljeA-147" edge="1">
          <mxGeometry x="-23" y="135.5" width="100" height="100" as="geometry">
            <mxPoint x="1347" y="487.66999999999996" as="sourcePoint" />
            <mxPoint x="1490" y="487.66999999999996" as="targetPoint" />
          </mxGeometry>
        </mxCell>
        <mxCell id="DsPwOujlODeQ00mXqI9u-138" value="" style="edgeStyle=elbowEdgeStyle;elbow=vertical;strokeWidth=2;rounded=0;endArrow=none;startFill=0;" parent="1" edge="1">
          <mxGeometry x="-23" y="135.5" width="100" height="100" as="geometry">
            <mxPoint x="1377" y="372" as="sourcePoint" />
            <mxPoint x="1407" y="372" as="targetPoint" />
          </mxGeometry>
        </mxCell>
        <mxCell id="DsPwOujlODeQ00mXqI9u-139" value="" style="edgeStyle=elbowEdgeStyle;elbow=vertical;strokeWidth=2;rounded=0" parent="1" target="48" edge="1">
          <mxGeometry x="-23" y="135.5" width="100" height="100" as="geometry">
            <mxPoint x="1195" y="405" as="sourcePoint" />
            <mxPoint x="1085" y="405.0000000000001" as="targetPoint" />
            <Array as="points">
              <mxPoint x="1195" y="405" />
            </Array>
          </mxGeometry>
        </mxCell>
        <mxCell id="DsPwOujlODeQ00mXqI9u-140" value="" style="edgeStyle=elbowEdgeStyle;elbow=vertical;strokeWidth=2;rounded=0;" parent="1" target="l-jHCrnwmfXqRq9-ljeA-137" edge="1">
          <mxGeometry x="-23" y="135.5" width="100" height="100" as="geometry">
            <mxPoint x="1104" y="406" as="sourcePoint" />
            <mxPoint x="1104" y="440" as="targetPoint" />
            <Array as="points">
              <mxPoint x="1104" y="429" />
            </Array>
          </mxGeometry>
        </mxCell>
        <mxCell id="DsPwOujlODeQ00mXqI9u-141" value="" style="edgeStyle=elbowEdgeStyle;elbow=vertical;strokeWidth=2;rounded=0;endArrow=none;startFill=0;" parent="1" edge="1">
          <mxGeometry x="-23" y="135.5" width="100" height="100" as="geometry">
            <mxPoint x="1261" y="449" as="sourcePoint" />
            <mxPoint x="1407" y="448.8888888888889" as="targetPoint" />
          </mxGeometry>
        </mxCell>
        <mxCell id="DsPwOujlODeQ00mXqI9u-142" value="" style="edgeStyle=elbowEdgeStyle;elbow=vertical;strokeWidth=2;rounded=0;endArrow=none;startFill=0;" parent="1" source="l-jHCrnwmfXqRq9-ljeA-142" target="l-jHCrnwmfXqRq9-ljeA-146" edge="1">
          <mxGeometry x="-23" y="135.5" width="100" height="100" as="geometry">
            <mxPoint x="1364" y="407.72" as="sourcePoint" />
            <mxPoint x="1394" y="407.72" as="targetPoint" />
          </mxGeometry>
        </mxCell>
        <mxCell id="DsPwOujlODeQ00mXqI9u-144" value="" style="edgeStyle=orthogonalEdgeStyle;elbow=horizontal;strokeWidth=2;rounded=0" parent="1" edge="1">
          <mxGeometry x="-23" y="135.5" width="100" height="100" as="geometry">
            <mxPoint x="852" y="556" as="sourcePoint" />
            <mxPoint x="951" y="756" as="targetPoint" />
            <Array as="points">
              <mxPoint x="852" y="736" />
              <mxPoint x="951" y="736" />
            </Array>
          </mxGeometry>
        </mxCell>
        <mxCell id="DsPwOujlODeQ00mXqI9u-146" value="" style="edgeStyle=elbowEdgeStyle;elbow=vertical;strokeWidth=2;rounded=0" parent="1" target="42" edge="1">
          <mxGeometry x="-23" y="135.5" width="100" height="100" as="geometry">
            <mxPoint x="956" y="876" as="sourcePoint" />
            <mxPoint x="901" y="875.55" as="targetPoint" />
            <Array as="points">
              <mxPoint x="1029" y="875.55" />
            </Array>
          </mxGeometry>
        </mxCell>
        <mxCell id="DsPwOujlODeQ00mXqI9u-147" value="" style="edgeStyle=elbowEdgeStyle;elbow=vertical;strokeWidth=2;rounded=0" parent="1" target="l-jHCrnwmfXqRq9-ljeA-131" edge="1">
          <mxGeometry x="-23" y="135.5" width="100" height="100" as="geometry">
            <mxPoint x="1030" y="841" as="sourcePoint" />
            <mxPoint x="1030" y="931" as="targetPoint" />
            <Array as="points">
              <mxPoint x="1030" y="911" />
            </Array>
          </mxGeometry>
        </mxCell>
        <mxCell id="DsPwOujlODeQ00mXqI9u-148" value="" style="edgeStyle=elbowEdgeStyle;elbow=vertical;strokeWidth=2;rounded=0" parent="1" source="l-jHCrnwmfXqRq9-ljeA-154" target="l-jHCrnwmfXqRq9-ljeA-156" edge="1">
          <mxGeometry x="-23" y="135.5" width="100" height="100" as="geometry">
            <mxPoint x="1000" y="636" as="sourcePoint" />
            <mxPoint x="1000" y="716" as="targetPoint" />
            <Array as="points" />
          </mxGeometry>
        </mxCell>
        <mxCell id="DsPwOujlODeQ00mXqI9u-149" value="" style="edgeStyle=elbowEdgeStyle;elbow=vertical;strokeWidth=2;rounded=0" parent="1" target="l-jHCrnwmfXqRq9-ljeA-157" edge="1">
          <mxGeometry x="-23" y="135.5" width="100" height="100" as="geometry">
            <mxPoint x="1000" y="659" as="sourcePoint" />
            <mxPoint x="1169" y="674" as="targetPoint" />
            <Array as="points">
              <mxPoint x="1084" y="659" />
            </Array>
          </mxGeometry>
        </mxCell>
        <mxCell id="DsPwOujlODeQ00mXqI9u-150" value="" style="edgeStyle=elbowEdgeStyle;elbow=vertical;strokeWidth=2;rounded=0" parent="1" target="l-jHCrnwmfXqRq9-ljeA-155" edge="1">
          <mxGeometry x="-23" y="135.5" width="100" height="100" as="geometry">
            <mxPoint x="1084" y="659.45" as="sourcePoint" />
            <mxPoint x="1113" y="659" as="targetPoint" />
            <Array as="points">
              <mxPoint x="1157" y="659" />
            </Array>
          </mxGeometry>
        </mxCell>
        <mxCell id="DsPwOujlODeQ00mXqI9u-151" value="" style="edgeStyle=elbowEdgeStyle;elbow=vertical;strokeWidth=2;rounded=0" parent="1" target="l-jHCrnwmfXqRq9-ljeA-154" edge="1">
          <mxGeometry x="-23" y="135.5" width="100" height="100" as="geometry">
            <mxPoint x="853" y="606" as="sourcePoint" />
            <mxPoint x="903.9999999999998" y="606.3299999999999" as="targetPoint" />
            <Array as="points">
              <mxPoint x="993" y="606.33" />
            </Array>
          </mxGeometry>
        </mxCell>
        <mxCell id="DsPwOujlODeQ00mXqI9u-152" value="" style="edgeStyle=elbowEdgeStyle;elbow=vertical;strokeWidth=2;rounded=0" parent="1" edge="1">
          <mxGeometry x="-23" y="135.5" width="100" height="100" as="geometry">
            <mxPoint x="851" y="556" as="sourcePoint" />
            <mxPoint x="1381" y="586" as="targetPoint" />
            <Array as="points">
              <mxPoint x="1381" y="556" />
            </Array>
          </mxGeometry>
        </mxCell>
        <mxCell id="DsPwOujlODeQ00mXqI9u-153" value="" style="edgeStyle=orthogonalEdgeStyle;elbow=horizontal;strokeWidth=2;rounded=0;" parent="1" target="l-jHCrnwmfXqRq9-ljeA-152" edge="1">
          <mxGeometry x="-23" y="135.5" width="100" height="100" as="geometry">
            <mxPoint x="1383" y="666" as="sourcePoint" />
            <mxPoint x="1471" y="736" as="targetPoint" />
            <Array as="points">
              <mxPoint x="1383" y="719" />
            </Array>
          </mxGeometry>
        </mxCell>
        <mxCell id="DsPwOujlODeQ00mXqI9u-154" value="" style="edgeStyle=elbowEdgeStyle;elbow=vertical;strokeWidth=2;rounded=0" parent="1" target="l-jHCrnwmfXqRq9-ljeA-158" edge="1">
          <mxGeometry x="-23" y="135.5" width="100" height="100" as="geometry">
            <mxPoint x="1420" y="718.5" as="sourcePoint" />
            <mxPoint x="1504" y="741.5" as="targetPoint" />
            <Array as="points">
              <mxPoint x="1420" y="726" />
            </Array>
          </mxGeometry>
        </mxCell>
        <mxCell id="DsPwOujlODeQ00mXqI9u-155" value="" style="edgeStyle=orthogonalEdgeStyle;elbow=horizontal;strokeWidth=2;rounded=0;" parent="1" edge="1">
          <mxGeometry x="-23" y="135.5" width="100" height="100" as="geometry">
            <mxPoint x="1383" y="719" as="sourcePoint" />
            <mxPoint x="1330" y="719" as="targetPoint" />
            <Array as="points" />
          </mxGeometry>
        </mxCell>
        <mxCell id="DsPwOujlODeQ00mXqI9u-156" value="" style="edgeStyle=elbowEdgeStyle;elbow=vertical;strokeWidth=2;rounded=0" parent="1" edge="1">
          <mxGeometry x="-23" y="135.5" width="100" height="100" as="geometry">
            <mxPoint x="1358" y="718.5" as="sourcePoint" />
            <mxPoint x="1358" y="756" as="targetPoint" />
            <Array as="points">
              <mxPoint x="1358" y="726" />
            </Array>
          </mxGeometry>
        </mxCell>
        <mxCell id="Vo9DHlcTvtW10fHLxGXu-105" value="4387" style="ellipse;whiteSpace=wrap;html=1;aspect=fixed;fillColor=light-dark(#FFFFFF,var(--ge-dark-color, #121212));" parent="1" vertex="1">
          <mxGeometry x="568" y="307" width="30" height="30" as="geometry" />
        </mxCell>
        <mxCell id="6wfpH-VNdj0XWaP_QxWf-105" value="String + icon&#xa;translations" style="rounded=1;fontStyle=1;fontFamily=Tahoma;fontSize=14;fillColor=#dae8fc;strokeColor=#6c8ebf;" parent="1" vertex="1">
          <mxGeometry x="630" y="433" width="130" height="60" as="geometry" />
        </mxCell>
        <mxCell id="6wfpH-VNdj0XWaP_QxWf-106" value="" style="edgeStyle=elbowEdgeStyle;elbow=vertical;strokeWidth=2;rounded=0" parent="1" target="6wfpH-VNdj0XWaP_QxWf-105" edge="1">
          <mxGeometry x="-23" y="135.5" width="100" height="100" as="geometry">
            <mxPoint x="589" y="463" as="sourcePoint" />
            <mxPoint x="660" y="463" as="targetPoint" />
            <Array as="points">
              <mxPoint x="629" y="463" />
              <mxPoint x="609" y="463" />
            </Array>
          </mxGeometry>
        </mxCell>
        <mxCell id="d2jf34gkUPlu4Y7FvHrK-107" value="365" style="ellipse;whiteSpace=wrap;html=1;aspect=fixed;" vertex="1" parent="1">
          <mxGeometry x="369" y="353" width="27" height="27" as="geometry" />
        </mxCell>
        <mxCell id="d2jf34gkUPlu4Y7FvHrK-108" value="145" style="ellipse;whiteSpace=wrap;html=1;aspect=fixed;" vertex="1" parent="1">
          <mxGeometry x="350" y="436" width="27" height="27" as="geometry" />
        </mxCell>
        <mxCell id="d2jf34gkUPlu4Y7FvHrK-109" value="849" style="ellipse;whiteSpace=wrap;html=1;aspect=fixed;" vertex="1" parent="1">
          <mxGeometry x="480" y="493" width="27" height="27" as="geometry" />
        </mxCell>
        <mxCell id="d2jf34gkUPlu4Y7FvHrK-110" value="169" style="ellipse;whiteSpace=wrap;html=1;aspect=fixed;" vertex="1" parent="1">
          <mxGeometry x="670" y="499" width="27" height="27" as="geometry" />
        </mxCell>
        <mxCell id="d2jf34gkUPlu4Y7FvHrK-111" value="616" style="ellipse;whiteSpace=wrap;html=1;aspect=fixed;" vertex="1" parent="1">
          <mxGeometry x="740" y="429" width="27" height="27" as="geometry" />
        </mxCell>
        <mxCell id="d2jf34gkUPlu4Y7FvHrK-112" value="1612" style="ellipse;whiteSpace=wrap;html=1;aspect=fixed;" vertex="1" parent="1">
          <mxGeometry x="778" y="356" width="27" height="27" as="geometry" />
        </mxCell>
        <mxCell id="d2jf34gkUPlu4Y7FvHrK-113" value="631" style="ellipse;whiteSpace=wrap;html=1;aspect=fixed;" vertex="1" parent="1">
          <mxGeometry x="548" y="424" width="27" height="27" as="geometry" />
        </mxCell>
        <mxCell id="d2jf34gkUPlu4Y7FvHrK-114" value="134" style="ellipse;whiteSpace=wrap;html=1;aspect=fixed;" vertex="1" parent="1">
          <mxGeometry x="1060" y="375.5" width="27" height="27" as="geometry" />
        </mxCell>
        <mxCell id="d2jf34gkUPlu4Y7FvHrK-115" value="188" style="ellipse;whiteSpace=wrap;html=1;aspect=fixed;" vertex="1" parent="1">
          <mxGeometry x="1101" y="444" width="27" height="27" as="geometry" />
        </mxCell>
        <mxCell id="d2jf34gkUPlu4Y7FvHrK-116" value="694" style="ellipse;whiteSpace=wrap;html=1;aspect=fixed;" vertex="1" parent="1">
          <mxGeometry x="1360" y="341" width="27" height="27" as="geometry" />
        </mxCell>
        <mxCell id="d2jf34gkUPlu4Y7FvHrK-117" value="347" style="ellipse;whiteSpace=wrap;html=1;aspect=fixed;" vertex="1" parent="1">
          <mxGeometry x="1500" y="341" width="27" height="27" as="geometry" />
        </mxCell>
        <mxCell id="d2jf34gkUPlu4Y7FvHrK-118" value="242" style="ellipse;whiteSpace=wrap;html=1;aspect=fixed;" vertex="1" parent="1">
          <mxGeometry x="1359" y="386" width="27" height="27" as="geometry" />
        </mxCell>
        <mxCell id="d2jf34gkUPlu4Y7FvHrK-119" value="58" style="ellipse;whiteSpace=wrap;html=1;aspect=fixed;" vertex="1" parent="1">
          <mxGeometry x="1359" y="465.5" width="27" height="27" as="geometry" />
        </mxCell>
        <mxCell id="d2jf34gkUPlu4Y7FvHrK-120" value="66" style="ellipse;whiteSpace=wrap;html=1;aspect=fixed;" vertex="1" parent="1">
          <mxGeometry x="1500" y="386" width="27" height="27" as="geometry" />
        </mxCell>
        <mxCell id="d2jf34gkUPlu4Y7FvHrK-121" value="111" style="ellipse;whiteSpace=wrap;html=1;aspect=fixed;" vertex="1" parent="1">
          <mxGeometry x="1500" y="427" width="27" height="27" as="geometry" />
        </mxCell>
        <mxCell id="d2jf34gkUPlu4Y7FvHrK-123" value="69" style="ellipse;whiteSpace=wrap;html=1;aspect=fixed;" vertex="1" parent="1">
          <mxGeometry x="1500" y="466" width="27" height="27" as="geometry" />
        </mxCell>
        <mxCell id="d2jf34gkUPlu4Y7FvHrK-124" value="41" style="ellipse;whiteSpace=wrap;html=1;aspect=fixed;" vertex="1" parent="1">
          <mxGeometry x="1500" y="506" width="27" height="27" as="geometry" />
        </mxCell>
        <mxCell id="d2jf34gkUPlu4Y7FvHrK-125" value="50" style="ellipse;whiteSpace=wrap;html=1;aspect=fixed;" vertex="1" parent="1">
          <mxGeometry x="1360" y="506" width="27" height="27" as="geometry" />
        </mxCell>
        <mxCell id="d2jf34gkUPlu4Y7FvHrK-126" value="232" style="ellipse;whiteSpace=wrap;html=1;aspect=fixed;" vertex="1" parent="1">
          <mxGeometry x="1560" y="672" width="27" height="27" as="geometry" />
        </mxCell>
        <mxCell id="d2jf34gkUPlu4Y7FvHrK-128" value="313" style="ellipse;whiteSpace=wrap;html=1;aspect=fixed;" vertex="1" parent="1">
          <mxGeometry x="333" y="672" width="27" height="27" as="geometry" />
        </mxCell>
        <mxCell id="d2jf34gkUPlu4Y7FvHrK-129" value="319" style="ellipse;whiteSpace=wrap;html=1;aspect=fixed;" vertex="1" parent="1">
          <mxGeometry x="362" y="779" width="27" height="27" as="geometry" />
        </mxCell>
        <mxCell id="d2jf34gkUPlu4Y7FvHrK-130" value="72" style="ellipse;whiteSpace=wrap;html=1;aspect=fixed;" vertex="1" parent="1">
          <mxGeometry x="499" y="756" width="27" height="27" as="geometry" />
        </mxCell>
        <mxCell id="d2jf34gkUPlu4Y7FvHrK-131" value="416" style="ellipse;whiteSpace=wrap;html=1;aspect=fixed;" vertex="1" parent="1">
          <mxGeometry x="643" y="772.5" width="27" height="27" as="geometry" />
        </mxCell>
        <mxCell id="d2jf34gkUPlu4Y7FvHrK-132" value="530" style="ellipse;whiteSpace=wrap;html=1;aspect=fixed;" vertex="1" parent="1">
          <mxGeometry x="690" y="681.5" width="27" height="27" as="geometry" />
        </mxCell>
        <mxCell id="d2jf34gkUPlu4Y7FvHrK-133" value="154" style="ellipse;whiteSpace=wrap;html=1;aspect=fixed;" vertex="1" parent="1">
          <mxGeometry x="589" y="970" width="27" height="27" as="geometry" />
        </mxCell>
        <mxCell id="d2jf34gkUPlu4Y7FvHrK-134" value="893" style="ellipse;whiteSpace=wrap;html=1;aspect=fixed;" vertex="1" parent="1">
          <mxGeometry x="790" y="970" width="27" height="27" as="geometry" />
        </mxCell>
        <mxCell id="d2jf34gkUPlu4Y7FvHrK-135" value="261" style="ellipse;whiteSpace=wrap;html=1;aspect=fixed;" vertex="1" parent="1">
          <mxGeometry x="890" y="838" width="27" height="27" as="geometry" />
        </mxCell>
        <mxCell id="d2jf34gkUPlu4Y7FvHrK-136" value="502" style="ellipse;whiteSpace=wrap;html=1;aspect=fixed;" vertex="1" parent="1">
          <mxGeometry x="967" y="921" width="27" height="27" as="geometry" />
        </mxCell>
        <mxCell id="d2jf34gkUPlu4Y7FvHrK-137" value="163" style="ellipse;whiteSpace=wrap;html=1;aspect=fixed;" vertex="1" parent="1">
          <mxGeometry x="1124" y="916" width="27" height="27" as="geometry" />
        </mxCell>
        <mxCell id="d2jf34gkUPlu4Y7FvHrK-138" value="183" style="ellipse;whiteSpace=wrap;html=1;aspect=fixed;" vertex="1" parent="1">
          <mxGeometry x="1173.5" y="849" width="27" height="27" as="geometry" />
        </mxCell>
        <mxCell id="d2jf34gkUPlu4Y7FvHrK-139" value="1109" style="ellipse;whiteSpace=wrap;html=1;aspect=fixed;fillColor=light-dark(#FFFFFF,var(--ge-dark-color, #121212));" vertex="1" parent="1">
          <mxGeometry x="1020" y="746" width="30" height="30" as="geometry" />
        </mxCell>
        <mxCell id="d2jf34gkUPlu4Y7FvHrK-140" value="1047" style="ellipse;whiteSpace=wrap;html=1;aspect=fixed;fillColor=light-dark(#FFFFFF,var(--ge-dark-color, #121212));" vertex="1" parent="1">
          <mxGeometry x="717" y="861" width="30" height="30" as="geometry" />
        </mxCell>
        <mxCell id="d2jf34gkUPlu4Y7FvHrK-141" value="1650" style="ellipse;whiteSpace=wrap;html=1;aspect=fixed;fillColor=light-dark(#FFFFFF,var(--ge-dark-color, #121212));" vertex="1" parent="1">
          <mxGeometry x="530" y="600" width="30" height="30" as="geometry" />
        </mxCell>
        <mxCell id="d2jf34gkUPlu4Y7FvHrK-142" value="167" style="ellipse;whiteSpace=wrap;html=1;aspect=fixed;" vertex="1" parent="1">
          <mxGeometry x="993" y="666" width="27" height="27" as="geometry" />
        </mxCell>
        <mxCell id="d2jf34gkUPlu4Y7FvHrK-143" value="428" style="ellipse;whiteSpace=wrap;html=1;aspect=fixed;" vertex="1" parent="1">
          <mxGeometry x="1161" y="674" width="27" height="27" as="geometry" />
        </mxCell>
        <mxCell id="d2jf34gkUPlu4Y7FvHrK-144" value="36" style="ellipse;whiteSpace=wrap;html=1;aspect=fixed;" vertex="1" parent="1">
          <mxGeometry x="1234" y="603" width="27" height="27" as="geometry" />
        </mxCell>
        <mxCell id="d2jf34gkUPlu4Y7FvHrK-145" value="394" style="ellipse;whiteSpace=wrap;html=1;aspect=fixed;" vertex="1" parent="1">
          <mxGeometry x="1310" y="678" width="27" height="27" as="geometry" />
        </mxCell>
        <mxCell id="d2jf34gkUPlu4Y7FvHrK-146" value="315" style="ellipse;whiteSpace=wrap;html=1;aspect=fixed;" vertex="1" parent="1">
          <mxGeometry x="1360" y="749" width="27" height="27" as="geometry" />
        </mxCell>
        <mxCell id="d2jf34gkUPlu4Y7FvHrK-147" value="178" style="ellipse;whiteSpace=wrap;html=1;aspect=fixed;" vertex="1" parent="1">
          <mxGeometry x="1527" y="747.5" width="27" height="27" as="geometry" />
        </mxCell>
        <mxCell id="d2jf34gkUPlu4Y7FvHrK-148" value="631" style="ellipse;whiteSpace=wrap;html=1;aspect=fixed;fillColor=light-dark(#FFFFFF,var(--ge-dark-color, #121212));" vertex="1" parent="1">
          <mxGeometry x="1073" y="559" width="30" height="30" as="geometry" />
        </mxCell>
        <mxCell id="d2jf34gkUPlu4Y7FvHrK-149" value="1119" style="ellipse;whiteSpace=wrap;html=1;aspect=fixed;fillColor=light-dark(#FFFFFF,var(--ge-dark-color, #121212));" vertex="1" parent="1">
          <mxGeometry x="1457.5" y="579" width="30" height="30" as="geometry" />
        </mxCell>
        <mxCell id="d2jf34gkUPlu4Y7FvHrK-150" value="2000" style="ellipse;whiteSpace=wrap;html=1;aspect=fixed;fillColor=light-dark(#FFFFFF,var(--ge-dark-color, #121212));" vertex="1" parent="1">
          <mxGeometry x="1272" y="307" width="30" height="30" as="geometry" />
        </mxCell>
        <mxCell id="d2jf34gkUPlu4Y7FvHrK-151" value="11943" style="ellipse;whiteSpace=wrap;html=1;aspect=fixed;fillColor=light-dark(#FFFFFF,var(--ge-dark-color, #121212));" vertex="1" parent="1">
          <mxGeometry x="917.5" y="170" width="40" height="40" as="geometry" />
        </mxCell>
      </root>
    </mxGraphModel>
  </diagram>
</mxfile>
